<svg width="40" height="40" viewBox="0 0 40 40" fill="none" xmlns="http://www.w3.org/2000/svg">
<g clip-path="url(#clip0_2520_9649)">
<path d="M20 3.33333C29.19 3.33333 36.6667 10.81 36.6667 20C36.6667 29.19 29.19 36.6667 20 36.6667C10.81 36.6667 3.33333 29.19 3.33333 20C3.33333 10.81 10.81 3.33333 20 3.33333ZM20 0C8.955 0 0 8.955 0 20C0 31.045 8.955 40 20 40C31.045 40 40 31.045 40 20C40 8.955 31.045 0 20 0ZM27.3217 12.5L17.9167 22.14L13.51 17.9633L10.4167 21.06L17.9167 28.3333L30.4167 15.595L27.3217 12.5Z" fill="#5DB075"/>
</g>
<defs>
<clipPath id="clip0_2520_9649">
<rect width="40" height="40" fill="white"/>
</clipPath>
</defs>
</svg>
