<svg width="24" height="25" viewBox="0 0 24 25" fill="none" xmlns="http://www.w3.org/2000/svg">
<path d="M17.0458 22.4882C16.8932 22.4882 16.7469 22.4276 16.639 22.3197C16.5311 22.2118 16.4705 22.0654 16.4705 21.9128C16.4348 20.642 15.905 19.4351 14.9935 18.5489C14.082 17.6626 12.8608 17.1667 11.5894 17.1667C10.3181 17.1667 9.09684 17.6626 8.18535 18.5489C7.27386 19.4351 6.74399 20.642 6.70836 21.9128C6.70836 22.0654 6.64774 22.2118 6.53984 22.3197C6.43193 22.4276 6.28558 22.4882 6.13299 22.4882C5.98039 22.4882 5.83404 22.4276 5.72614 22.3197C5.61824 22.2118 5.55762 22.0654 5.55762 21.9128C5.5973 20.3394 6.2502 18.8438 7.37706 17.745C8.50391 16.6462 10.0155 16.0312 11.5894 16.0312C13.1633 16.0312 14.6749 16.6462 15.8018 17.745C16.9286 18.8438 17.5815 20.3394 17.6212 21.9128C17.6212 22.0654 17.5606 22.2118 17.4527 22.3197C17.3448 22.4276 17.1984 22.4882 17.0458 22.4882Z" fill="#4566D7"/>
<path d="M11.5922 15.1025C10.8924 15.1033 10.2081 14.8964 9.62592 14.5081C9.04374 14.1198 8.58985 13.5675 8.3217 12.9211C8.05355 12.2747 7.98319 11.5633 8.11953 10.8769C8.25587 10.1905 8.59277 9.55998 9.08761 9.06515C9.58244 8.57031 10.213 8.2334 10.8993 8.09707C11.5857 7.96073 12.2972 8.03109 12.9435 8.29924C13.5899 8.56739 14.1422 9.02128 14.5305 9.60346C14.9189 10.1856 15.1257 10.8699 15.125 11.5697C15.1229 12.5061 14.7501 13.4035 14.088 14.0655C13.4259 14.7276 12.5285 15.1005 11.5922 15.1025ZM11.5922 9.18387C11.1202 9.18311 10.6585 9.3224 10.2656 9.5841C9.87278 9.8458 9.56638 10.2182 9.38521 10.654C9.20404 11.0899 9.15625 11.5698 9.24787 12.0328C9.3395 12.4959 9.56643 12.9214 9.89994 13.2554C10.2335 13.5895 10.6586 13.8171 11.1215 13.9095C11.5844 14.0018 12.0643 13.9548 12.5005 13.7744C12.9367 13.5939 13.3095 13.2881 13.5719 12.8957C13.8342 12.5032 13.9742 12.0418 13.9742 11.5697C13.9732 10.9379 13.7221 10.3323 13.2757 9.88515C12.8293 9.43804 12.224 9.1859 11.5922 9.18387Z" fill="#4566D7"/>
<path d="M11.5918 24.0332C9.29915 24.0332 7.058 23.3533 5.15174 22.0796C3.24548 20.8059 1.75973 18.9955 0.882377 16.8774C0.00502267 14.7593 -0.224533 12.4285 0.222738 10.18C0.67001 7.93137 1.77402 5.86591 3.39516 4.24477C5.0163 2.62363 7.08176 1.51962 9.33034 1.07235C11.5789 0.625076 13.9096 0.854632 16.0278 1.73199C18.1459 2.60934 19.9563 4.09509 21.23 6.00135C22.5037 7.90761 23.1836 10.1488 23.1836 12.4414C23.1805 15.5148 21.9583 18.4614 19.7851 20.6347C17.6118 22.8079 14.6652 24.0301 11.5918 24.0332ZM11.5918 2.00035C9.52675 2.00035 7.50808 2.61271 5.79106 3.75999C4.07403 4.90726 2.73578 6.53793 1.94552 8.44578C1.15526 10.3536 0.948497 12.453 1.35137 14.4783C1.75424 16.5037 2.74865 18.3641 4.20886 19.8243C5.66906 21.2845 7.52948 22.279 9.55484 22.6818C11.5802 23.0847 13.6796 22.8779 15.5874 22.0877C17.4953 21.2974 19.1259 19.9592 20.2732 18.2421C21.4205 16.5251 22.0328 14.5064 22.0328 12.4414C22.0288 9.67351 20.9274 7.02014 18.9702 5.06295C17.013 3.10575 14.3597 2.00441 11.5918 2.00035Z" fill="#4566D7"/>
</svg>
